<svg width="20" height="24" viewBox="0 0 20 24" fill="none" xmlns="http://www.w3.org/2000/svg">
<path fill-rule="evenodd" clip-rule="evenodd" d="M5.85281 5.30959C7.06481 6.49059 8.58081 6.86859 9.53581 6.98659C9.53681 7.00359 10.4638 7.00359 10.4648 6.99059C11.4208 6.87259 12.9378 6.49659 14.1508 5.31559C16.1538 3.52259 15.9978 1.0046 15.9978 1.0046C15.9978 1.0046 13.3048 0.860595 11.3838 2.7316C10.6928 3.3496 10.2708 4.05159 9.99881 4.70959C9.72681 4.05159 9.30381 3.3506 8.61281 2.7316C6.69281 0.860595 4.00281 1.00159 4.00281 1.00159C4.00281 1.00159 3.85081 3.51559 5.85281 5.30959Z" stroke="black" stroke-width="2" stroke-linecap="round" stroke-linejoin="round"/>
<path fill-rule="evenodd" clip-rule="evenodd" d="M7.30011 7.00389C4.87711 6.98389 1.62011 7.73289 1.07111 11.7659C0.383107 16.8129 4.88711 20.7679 8.05211 22.4989C8.66211 22.8329 9.33111 22.9999 10.0001 22.9999C10.6691 22.9999 11.3381 22.8329 11.9481 22.4989C15.1131 20.7679 19.6181 16.8129 18.9301 11.7659C18.3801 7.73289 15.1231 6.98389 12.7001 7.00389H7.30011Z" stroke="black" stroke-width="2" stroke-linecap="round" stroke-linejoin="round"/>
<path d="M10.0003 12V13" stroke="black" stroke-width="2" stroke-linecap="round" stroke-linejoin="round"/>
<path d="M8.00031 17V18" stroke="black" stroke-width="2" stroke-linecap="round" stroke-linejoin="round"/>
<path d="M12.0003 17V18" stroke="black" stroke-width="2" stroke-linecap="round" stroke-linejoin="round"/>
<path d="M6.00031 12V13" stroke="black" stroke-width="2" stroke-linecap="round" stroke-linejoin="round"/>
<path d="M14.0003 12V13" stroke="black" stroke-width="2" stroke-linecap="round" stroke-linejoin="round"/>
</svg>
