<svg width="36" height="36" viewBox="0 0 36 36" fill="none" xmlns="http://www.w3.org/2000/svg">
<circle cx="18" cy="18" r="18" fill="#002D72"/>
<path d="M27.7899 23H21.9999C20.8959 23 19.9999 23.896 19.9999 25V28.81" stroke="white" stroke-width="2" stroke-linecap="round" stroke-linejoin="round"/>
<path d="M7.1907 20H11.0747C11.6527 20 12.1927 19.711 12.5137 19.229L13.4867 17.771C13.8077 17.289 14.3477 17 14.9257 17H14.9307C15.5867 17 16.1857 17.37 16.4787 17.956L16.5227 18.044C16.8157 18.63 17.4147 19 18.0697 19H18.2707C19.2257 19 20.0007 18.226 20.0007 17.27V17.269C20.0007 16.511 20.4847 15.838 21.2037 15.599L21.9747 15.342C22.5867 15.138 23.0007 14.564 23.0007 13.919V13.5C23.0007 12.672 22.3287 12 21.5007 12C20.6717 12 20.0007 11.328 20.0007 10.5V7.19" stroke="white" stroke-width="2" stroke-linecap="round" stroke-linejoin="round"/>
<path fill-rule="evenodd" clip-rule="evenodd" d="M29.0003 18C29.0003 24.075 24.0753 29 18.0003 29C11.9253 29 7.00031 24.075 7.00031 18C7.00031 11.925 11.9253 7 18.0003 7C24.0753 7 29.0003 11.925 29.0003 18Z" stroke="white" stroke-width="2" stroke-linecap="round" stroke-linejoin="round"/>
</svg>
