<svg width="24" height="24" viewBox="0 0 24 24" fill="none" xmlns="http://www.w3.org/2000/svg">
<path d="M21.7899 17H15.9999C14.8959 17 13.9999 17.896 13.9999 19V22.81" stroke="black" stroke-width="2" stroke-linecap="round" stroke-linejoin="round"/>
<path d="M1.1907 14H5.0747C5.6527 14 6.1927 13.711 6.5137 13.229L7.4867 11.771C7.8077 11.289 8.3477 11 8.9257 11H8.9307C9.5867 11 10.1857 11.37 10.4787 11.956L10.5227 12.044C10.8157 12.63 11.4147 13 12.0697 13H12.2707C13.2257 13 14.0007 12.226 14.0007 11.27V11.269C14.0007 10.511 14.4847 9.838 15.2037 9.599L15.9747 9.342C16.5867 9.138 17.0007 8.564 17.0007 7.919V7.5C17.0007 6.672 16.3287 6 15.5007 6C14.6717 6 14.0007 5.328 14.0007 4.5V1.19" stroke="black" stroke-width="2" stroke-linecap="round" stroke-linejoin="round"/>
<path fill-rule="evenodd" clip-rule="evenodd" d="M23.0003 12C23.0003 18.075 18.0753 23 12.0003 23C5.92531 23 1.00031 18.075 1.00031 12C1.00031 5.925 5.92531 1 12.0003 1C18.0753 1 23.0003 5.925 23.0003 12Z" stroke="black" stroke-width="2" stroke-linecap="round" stroke-linejoin="round"/>
</svg>
