<svg width="24" height="24" viewBox="0 0 24 24" fill="none" xmlns="http://www.w3.org/2000/svg">
<circle cx="12" cy="12" r="12" fill="#024271"/>
<path d="M6.66687 4.66667V9.33333" stroke="white" stroke-linecap="round" stroke-linejoin="round"/>
<path d="M4.66687 4.66667V10C4.66687 10.736 5.2642 11.3333 6.0002 11.3333H7.33354C8.06954 11.3333 8.66687 10.736 8.66687 10V4.66667" stroke="white" stroke-linecap="round" stroke-linejoin="round"/>
<path d="M6.66687 11.3333V19.3333" stroke="white" stroke-linecap="round" stroke-linejoin="round"/>
<path d="M17.3335 11.3333V19.3333" stroke="white" stroke-linecap="round" stroke-linejoin="round"/>
<path d="M13.3335 19.3333V4.66667C11.8609 4.66667 10.6669 5.86067 10.6669 7.33333V14H13.3335" stroke="white" stroke-linecap="round" stroke-linejoin="round"/>
<path fill-rule="evenodd" clip-rule="evenodd" d="M19.3335 8C19.3335 9.84133 18.4382 11.3333 17.3335 11.3333C16.2289 11.3333 15.3335 9.84133 15.3335 8C15.3335 6.15867 16.2289 4.66667 17.3335 4.66667C18.4382 4.66667 19.3335 6.15867 19.3335 8Z" stroke="white" stroke-linecap="round" stroke-linejoin="round"/>
</svg>
