<svg width="36" height="36" viewBox="0 0 36 36" fill="none" xmlns="http://www.w3.org/2000/svg">
<circle cx="18" cy="18" r="18" fill="#CFE1FC"/>
<path d="M10.0003 7V14" stroke="black" stroke-width="2" stroke-linecap="round" stroke-linejoin="round"/>
<path d="M7.00031 7V15C7.00031 16.104 7.89631 17 9.00031 17H11.0003C12.1043 17 13.0003 16.104 13.0003 15V7" stroke="black" stroke-width="2" stroke-linecap="round" stroke-linejoin="round"/>
<path d="M10.0003 17V29" stroke="black" stroke-width="2" stroke-linecap="round" stroke-linejoin="round"/>
<path d="M26.0003 17V29" stroke="black" stroke-width="2" stroke-linecap="round" stroke-linejoin="round"/>
<path d="M20.0003 29V7C17.7913 7 16.0003 8.791 16.0003 11V21H20.0003" stroke="black" stroke-width="2" stroke-linecap="round" stroke-linejoin="round"/>
<path fill-rule="evenodd" clip-rule="evenodd" d="M29.0003 12C29.0003 14.762 27.6573 17 26.0003 17C24.3433 17 23.0003 14.762 23.0003 12C23.0003 9.238 24.3433 7 26.0003 7C27.6573 7 29.0003 9.238 29.0003 12Z" stroke="black" stroke-width="2" stroke-linecap="round" stroke-linejoin="round"/>
</svg>
