<svg width="24" height="24" viewBox="0 0 24 24" fill="none" xmlns="http://www.w3.org/2000/svg">
<path d="M4.83354 4.66667H6.16688L9.18421 13.1153C9.37421 13.646 9.87621 14 10.4395 14H16.5082C17.0975 14 17.6162 13.614 17.7855 13.0493L19.1669 7.33333" stroke="black" stroke-linecap="round" stroke-linejoin="round"/>
<path fill-rule="evenodd" clip-rule="evenodd" d="M12.1669 18C12.1669 18.736 11.5695 19.3333 10.8335 19.3333C10.0975 19.3333 9.50021 18.736 9.50021 18C9.50021 17.264 10.0975 16.6667 10.8335 16.6667C11.5695 16.6667 12.1669 17.264 12.1669 18Z" stroke="black" stroke-linecap="round" stroke-linejoin="round"/>
<path fill-rule="evenodd" clip-rule="evenodd" d="M17.5002 18C17.5002 18.736 16.9029 19.3333 16.1669 19.3333C15.4309 19.3333 14.8335 18.736 14.8335 18C14.8335 17.264 15.4309 16.6667 16.1669 16.6667C16.9029 16.6667 17.5002 17.264 17.5002 18Z" stroke="black" stroke-linecap="round" stroke-linejoin="round"/>
</svg>
