<svg width="24" height="24" viewBox="0 0 24 24" fill="none" xmlns="http://www.w3.org/2000/svg">
<path d="M1.25031 1H3.25031L7.77631 13.673C8.06131 14.469 8.8143 15 9.6593 15H18.7623C19.6463 15 20.4243 14.421 20.6783 13.574L22.7503 5" stroke="black" stroke-width="2" stroke-linecap="round" stroke-linejoin="round"/>
<path fill-rule="evenodd" clip-rule="evenodd" d="M12.2503 21C12.2503 22.104 11.3543 23 10.2503 23C9.14631 23 8.25031 22.104 8.25031 21C8.25031 19.896 9.14631 19 10.2503 19C11.3543 19 12.2503 19.896 12.2503 21Z" stroke="black" stroke-width="2" stroke-linecap="round" stroke-linejoin="round"/>
<path fill-rule="evenodd" clip-rule="evenodd" d="M20.2503 21C20.2503 22.104 19.3543 23 18.2503 23C17.1463 23 16.2503 22.104 16.2503 21C16.2503 19.896 17.1463 19 18.2503 19C19.3543 19 20.2503 19.896 20.2503 21Z" stroke="black" stroke-width="2" stroke-linecap="round" stroke-linejoin="round"/>
</svg>
