<svg width="36" height="36" viewBox="0 0 36 36" fill="none" xmlns="http://www.w3.org/2000/svg">
<circle cx="18" cy="18" r="18" fill="#CFE1FC"/>
<path d="M22.9925 12.0039L29.0005 10.9999" stroke="black" stroke-width="2" stroke-linecap="round" stroke-linejoin="round"/>
<path d="M24.0003 5.99999L22.9923 12.004" stroke="black" stroke-width="2" stroke-linecap="round" stroke-linejoin="round"/>
<path d="M22.9925 12.0039L29.0005 5.99989" stroke="black" stroke-width="2" stroke-linecap="round" stroke-linejoin="round"/>
<path d="M14.1019 11.6963L15.8699 13.4653" stroke="black" stroke-width="2" stroke-linecap="round" stroke-linejoin="round"/>
<path d="M10.0364 18.9443L11.5064 20.4143" stroke="black" stroke-width="2" stroke-linecap="round" stroke-linejoin="round"/>
<path d="M11.9808 15.2324L13.3948 16.6464" stroke="black" stroke-width="2" stroke-linecap="round" stroke-linejoin="round"/>
<path fill-rule="evenodd" clip-rule="evenodd" d="M25.9339 16.3398C25.7419 15.1768 25.1099 14.1328 24.2819 13.2938L22.9939 12.0068L21.7059 10.7188C20.8669 9.89179 19.8229 9.25979 18.6599 9.06779C17.2029 8.82479 15.8249 9.22579 14.7389 10.4478C11.4599 14.1378 6.1849 26.9578 7.1069 27.8938C8.0429 28.8158 20.8629 23.5368 24.5519 20.2598C25.7749 19.1738 26.1749 17.7958 25.9339 16.3398Z" stroke="black" stroke-width="2" stroke-linecap="round" stroke-linejoin="round"/>
</svg>
