<svg width="24" height="24" viewBox="0 0 24 24" fill="none" xmlns="http://www.w3.org/2000/svg">
<path d="M16.9925 7.00389L23.0005 5.99989" stroke="black" stroke-width="2" stroke-linecap="round" stroke-linejoin="round"/>
<path d="M18.0003 0.999992L16.9923 7.00399" stroke="black" stroke-width="2" stroke-linecap="round" stroke-linejoin="round"/>
<path d="M16.9925 7.00389L23.0005 0.999893" stroke="black" stroke-width="2" stroke-linecap="round" stroke-linejoin="round"/>
<path d="M8.1019 6.6963L9.8699 8.4653" stroke="black" stroke-width="2" stroke-linecap="round" stroke-linejoin="round"/>
<path d="M4.03641 13.9443L5.50641 15.4143" stroke="black" stroke-width="2" stroke-linecap="round" stroke-linejoin="round"/>
<path d="M5.9808 10.2324L7.3948 11.6464" stroke="black" stroke-width="2" stroke-linecap="round" stroke-linejoin="round"/>
<path fill-rule="evenodd" clip-rule="evenodd" d="M19.9339 11.3398C19.7419 10.1768 19.1099 9.13279 18.2819 8.29379L16.9939 7.00679L15.7059 5.71879C14.8669 4.89179 13.8229 4.25979 12.6599 4.06779C11.2029 3.82479 9.8249 4.22579 8.7389 5.44779C5.4599 9.13779 0.184898 21.9578 1.1069 22.8938C2.0429 23.8158 14.8629 18.5368 18.5519 15.2598C19.7749 14.1738 20.1749 12.7958 19.9339 11.3398Z" stroke="black" stroke-width="2" stroke-linecap="round" stroke-linejoin="round"/>
</svg>
