<svg width="20" height="24" viewBox="0 0 20 24" fill="none" xmlns="http://www.w3.org/2000/svg">
<path d="M10.0003 1C10.0003 1 7.7023 2.794 6.0003 6" stroke="black" stroke-width="2" stroke-linecap="round" stroke-linejoin="round"/>
<path d="M14.0013 6C12.3023 2.8 10.0093 1.007 10.0003 1" stroke="black" stroke-width="2" stroke-linecap="round" stroke-linejoin="round"/>
<path d="M8.0003 8.3379C6.2463 5.9769 3.9933 4.9999 3.9933 4.9999C3.9933 4.9999 3.8783 5.1529 3.7003 5.4389C2.5733 7.2409 2.0003 9.4359 2.0003 11.6679V11.9999" stroke="black" stroke-width="2" stroke-linecap="round" stroke-linejoin="round"/>
<path d="M18.0003 12V11.668C18.0003 9.436 17.4273 7.241 16.3003 5.438C16.1223 5.153 16.0073 5 16.0073 5C16.0073 5 13.7543 5.977 12.0003 8.338" stroke="black" stroke-width="2" stroke-linecap="round" stroke-linejoin="round"/>
<path fill-rule="evenodd" clip-rule="evenodd" d="M18.9964 11.9121C18.9964 11.9121 15.2764 11.7371 12.4314 13.9671C11.4964 12.0711 10.0004 11.0001 10.0004 11.0001C10.0004 11.0001 8.5034 12.0721 7.5684 13.9701C4.7224 11.7371 1.0044 11.9071 1.0044 11.9071C1.0044 11.9071 0.776397 15.3171 3.7794 17.7501C5.0214 18.8441 6.4714 19.4281 7.7224 19.7391C8.4614 19.9231 9.2224 19.9971 9.9834 20.0001C10.7634 20.0021 11.5434 19.9301 12.3004 19.7411C13.5484 19.4291 14.9904 18.8471 16.2264 17.7591C19.2294 15.3261 18.9964 11.9121 18.9964 11.9121Z" stroke="black" stroke-width="2" stroke-linecap="round" stroke-linejoin="round"/>
<path d="M10.0003 20V23" stroke="black" stroke-width="2" stroke-linecap="round" stroke-linejoin="round"/>
</svg>
