<?xml version="1.0" encoding="UTF-8"?>
<svg xmlns="http://www.w3.org/2000/svg" xmlns:xlink="http://www.w3.org/1999/xlink" width="24pt" height="24pt" viewBox="0 0 24 24" version="1.1">
<defs>
<clipPath id="clip1">
  <path d="M 5.332031 8 L 18.667969 8 L 18.667969 20 L 5.332031 20 Z M 5.332031 8 "/>
</clipPath>
</defs>
<g id="surface16">
<path style=" stroke:none;fill-rule:nonzero;fill:rgb(92.54902%,94.117647%,94.509804%);fill-opacity:1;" d="M 24 12 C 24 18.628906 18.628906 24 12 24 C 5.371094 24 0 18.628906 0 12 C 0 5.371094 5.371094 0 12 0 C 18.628906 0 24 5.371094 24 12 Z M 24 12 "/>
<path style="fill:none;stroke-width:1;stroke-linecap:round;stroke-linejoin:round;stroke:rgb(0%,0%,0%);stroke-opacity:1;stroke-miterlimit:4;" d="M 9.234375 7.539062 C 10.042969 8.328125 11.054688 8.578125 11.691406 8.65625 C 11.691406 8.667969 12.308594 8.667969 12.308594 8.660156 C 12.945312 8.582031 13.957031 8.332031 14.765625 7.542969 C 16.101562 6.347656 16 4.667969 16 4.667969 C 16 4.667969 14.203125 4.574219 12.921875 5.820312 C 12.460938 6.234375 12.179688 6.699219 12 7.140625 C 11.816406 6.699219 11.535156 6.234375 11.074219 5.820312 C 9.796875 4.574219 8 4.667969 8 4.667969 C 8 4.667969 7.902344 6.34375 9.234375 7.539062 Z M 9.234375 7.539062 "/>
<g clip-path="url(#clip1)" clip-rule="nonzero">
<path style="fill:none;stroke-width:1;stroke-linecap:round;stroke-linejoin:round;stroke:rgb(0%,0%,0%);stroke-opacity:1;stroke-miterlimit:4;" d="M 10.199219 8.667969 C 8.585938 8.65625 6.414062 9.15625 6.046875 11.84375 C 5.589844 15.207031 8.589844 17.84375 10.703125 19 C 11.109375 19.222656 11.554688 19.332031 12 19.332031 C 12.445312 19.332031 12.890625 19.222656 13.296875 19 C 15.410156 17.84375 18.410156 15.207031 17.953125 11.84375 C 17.585938 9.15625 15.414062 8.65625 13.800781 8.667969 Z M 10.199219 8.667969 "/>
</g>
<path style="fill:none;stroke-width:1;stroke-linecap:round;stroke-linejoin:round;stroke:rgb(0%,0%,0%);stroke-opacity:1;stroke-miterlimit:4;" d="M 12 12 L 12 12.667969 "/>
<path style="fill:none;stroke-width:1;stroke-linecap:round;stroke-linejoin:round;stroke:rgb(0%,0%,0%);stroke-opacity:1;stroke-miterlimit:4;" d="M 10.667969 15.332031 L 10.667969 16 "/>
<path style="fill:none;stroke-width:1;stroke-linecap:round;stroke-linejoin:round;stroke:rgb(0%,0%,0%);stroke-opacity:1;stroke-miterlimit:4;" d="M 13.332031 15.332031 L 13.332031 16 "/>
<path style="fill:none;stroke-width:1;stroke-linecap:round;stroke-linejoin:round;stroke:rgb(0%,0%,0%);stroke-opacity:1;stroke-miterlimit:4;" d="M 9.332031 12 L 9.332031 12.667969 "/>
<path style="fill:none;stroke-width:1;stroke-linecap:round;stroke-linejoin:round;stroke:rgb(0%,0%,0%);stroke-opacity:1;stroke-miterlimit:4;" d="M 14.667969 12 L 14.667969 12.667969 "/>
</g>
</svg>
