<?xml version="1.0" encoding="UTF-8"?>
<svg xmlns="http://www.w3.org/2000/svg" xmlns:xlink="http://www.w3.org/1999/xlink" width="36pt" height="36pt" viewBox="0 0 36 36" version="1.1">
<g id="surface351">
<path style=" stroke:none;fill-rule:nonzero;fill:rgb(76.862746%,76.862746%,76.862746%);fill-opacity:1;" d="M 36 18 C 36 27.941406 27.941406 36 18 36 C 8.058594 36 0 27.941406 0 18 C 0 8.058594 8.058594 0 18 0 C 27.941406 0 36 8.058594 36 18 Z M 36 18 "/>
<path style="fill:none;stroke-width:2;stroke-linecap:round;stroke-linejoin:round;stroke:rgb(0%,0%,0%);stroke-opacity:1;stroke-miterlimit:4;" d="M 13.851563 11.308594 C 15.066406 12.492188 16.582031 12.867188 17.535156 12.988281 C 17.535156 13.003906 18.464844 13.003906 18.464844 12.992188 C 19.421875 12.871094 20.9375 12.496094 22.152344 11.316406 C 24.152344 9.523438 23.996094 7.003906 23.996094 7.003906 C 23.996094 7.003906 21.304688 6.859375 19.382813 8.730469 C 18.691406 9.347656 18.269531 10.050781 18 10.710938 C 17.726563 10.050781 17.304688 9.351563 16.613281 8.730469 C 14.691406 6.859375 12.003906 7 12.003906 7 C 12.003906 7 11.851563 9.515625 13.851563 11.308594 Z M 13.851563 11.308594 "/>
<path style="fill:none;stroke-width:2;stroke-linecap:round;stroke-linejoin:round;stroke:rgb(0%,0%,0%);stroke-opacity:1;stroke-miterlimit:4;" d="M 15.300781 13.003906 C 12.878906 12.984375 9.621094 13.734375 9.070313 17.765625 C 8.382813 22.8125 12.886719 26.769531 16.050781 28.5 C 16.660156 28.832031 17.332031 29 18 29 C 18.667969 29 19.339844 28.832031 19.949219 28.5 C 23.113281 26.769531 27.617188 22.8125 26.929688 17.765625 C 26.378906 13.734375 23.125 12.984375 20.699219 13.003906 Z M 15.300781 13.003906 "/>
<path style="fill:none;stroke-width:2;stroke-linecap:round;stroke-linejoin:round;stroke:rgb(0%,0%,0%);stroke-opacity:1;stroke-miterlimit:4;" d="M 18 18 L 18 19 "/>
<path style="fill:none;stroke-width:2;stroke-linecap:round;stroke-linejoin:round;stroke:rgb(0%,0%,0%);stroke-opacity:1;stroke-miterlimit:4;" d="M 16 23 L 16 24 "/>
<path style="fill:none;stroke-width:2;stroke-linecap:round;stroke-linejoin:round;stroke:rgb(0%,0%,0%);stroke-opacity:1;stroke-miterlimit:4;" d="M 20 23 L 20 24 "/>
<path style="fill:none;stroke-width:2;stroke-linecap:round;stroke-linejoin:round;stroke:rgb(0%,0%,0%);stroke-opacity:1;stroke-miterlimit:4;" d="M 14 18 L 14 19 "/>
<path style="fill:none;stroke-width:2;stroke-linecap:round;stroke-linejoin:round;stroke:rgb(0%,0%,0%);stroke-opacity:1;stroke-miterlimit:4;" d="M 22 18 L 22 19 "/>
</g>
</svg>
