<svg width="36" height="36" viewBox="0 0 36 36" fill="none" xmlns="http://www.w3.org/2000/svg">
<circle cx="18" cy="18" r="18" fill="#002D72"/>
<path fill-rule="evenodd" clip-rule="evenodd" d="M13.8528 11.3096C15.0648 12.4906 16.5808 12.8686 17.5358 12.9866C17.5368 13.0036 18.4638 13.0036 18.4648 12.9906C19.4208 12.8726 20.9378 12.4966 22.1508 11.3156C24.1538 9.52259 23.9978 7.0046 23.9978 7.0046C23.9978 7.0046 21.3048 6.86059 19.3838 8.7316C18.6928 9.3496 18.2708 10.0516 17.9988 10.7096C17.7268 10.0516 17.3038 9.3506 16.6128 8.7316C14.6928 6.86059 12.0028 7.00159 12.0028 7.00159C12.0028 7.00159 11.8508 9.51559 13.8528 11.3096Z" stroke="white" stroke-width="2" stroke-linecap="round" stroke-linejoin="round"/>
<path fill-rule="evenodd" clip-rule="evenodd" d="M15.3001 13.0039C12.8771 12.9839 9.62011 13.7329 9.07111 17.7659C8.38311 22.8129 12.8871 26.7679 16.0521 28.4989C16.6621 28.8329 17.3311 28.9999 18.0001 28.9999C18.6691 28.9999 19.3381 28.8329 19.9481 28.4989C23.1131 26.7679 27.6181 22.8129 26.9301 17.7659C26.3801 13.7329 23.1231 12.9839 20.7001 13.0039H15.3001Z" stroke="white" stroke-width="2" stroke-linecap="round" stroke-linejoin="round"/>
<path d="M18.0003 18V19" stroke="white" stroke-width="2" stroke-linecap="round" stroke-linejoin="round"/>
<path d="M16.0003 23V24" stroke="white" stroke-width="2" stroke-linecap="round" stroke-linejoin="round"/>
<path d="M20.0003 23V24" stroke="white" stroke-width="2" stroke-linecap="round" stroke-linejoin="round"/>
<path d="M14.0003 18V19" stroke="white" stroke-width="2" stroke-linecap="round" stroke-linejoin="round"/>
<path d="M22.0003 18V19" stroke="white" stroke-width="2" stroke-linecap="round" stroke-linejoin="round"/>
</svg>
