<svg width="24" height="24" viewBox="0 0 24 24" fill="none" xmlns="http://www.w3.org/2000/svg">
<circle cx="12" cy="12" r="12" fill="#ECF0F1"/>
<g clip-path="url(#clip0)">
<path fill-rule="evenodd" clip-rule="evenodd" d="M9.2352 7.53973C10.0432 8.32706 11.0539 8.57906 11.6905 8.65773C11.6912 8.66906 12.3092 8.66906 12.3099 8.6604C12.9472 8.58173 13.9585 8.33106 14.7672 7.54373C16.1025 6.3484 15.9985 4.66973 15.9985 4.66973C15.9985 4.66973 14.2032 4.57373 12.9225 5.82106C12.4619 6.23306 12.1805 6.70106 11.9992 7.13973C11.8179 6.70106 11.5359 6.23373 11.0752 5.82106C9.7952 4.57373 8.00187 4.66773 8.00187 4.66773C8.00187 4.66773 7.90053 6.34373 9.2352 7.53973Z" stroke="black" stroke-linecap="round" stroke-linejoin="round"/>
<path fill-rule="evenodd" clip-rule="evenodd" d="M10.2001 8.66926C8.58473 8.65593 6.41339 9.15526 6.04739 11.8439C5.58873 15.2086 8.59139 17.8453 10.7014 18.9993C11.1081 19.2219 11.5541 19.3333 12.0001 19.3333C12.4461 19.3333 12.8921 19.2219 13.2987 18.9993C15.4087 17.8453 18.4121 15.2086 17.9534 11.8439C17.5867 9.15526 15.4154 8.65593 13.8001 8.66926H10.2001Z" stroke="black" stroke-linecap="round" stroke-linejoin="round"/>
<path d="M12.0002 12V12.6667" stroke="black" stroke-linecap="round" stroke-linejoin="round"/>
<path d="M10.6669 15.3333V16" stroke="black" stroke-linecap="round" stroke-linejoin="round"/>
<path d="M13.3335 15.3333V16" stroke="black" stroke-linecap="round" stroke-linejoin="round"/>
<path d="M9.33353 12V12.6667" stroke="black" stroke-linecap="round" stroke-linejoin="round"/>
<path d="M14.6669 12V12.6667" stroke="black" stroke-linecap="round" stroke-linejoin="round"/>
</g>
<defs>
<clipPath id="clip0">
<rect width="13.3333" height="16" fill="white" transform="translate(5.33333 4)"/>
</clipPath>
</defs>
</svg>
