<?xml version="1.0" encoding="UTF-8"?>
<svg xmlns="http://www.w3.org/2000/svg" xmlns:xlink="http://www.w3.org/1999/xlink" width="24pt" height="24pt" viewBox="0 0 24 24" version="1.1">
<g id="surface86">
<path style="fill:none;stroke-width:1;stroke-linecap:round;stroke-linejoin:round;stroke:rgb(0%,0%,0%);stroke-opacity:1;stroke-miterlimit:4;" d="M 18.527344 15.332031 L 14.667969 15.332031 C 13.929688 15.332031 13.332031 15.929688 13.332031 16.667969 L 13.332031 19.207031 "/>
<path style="fill:none;stroke-width:1;stroke-linecap:round;stroke-linejoin:round;stroke:rgb(0%,0%,0%);stroke-opacity:1;stroke-miterlimit:4;" d="M 4.792969 13.332031 L 7.382812 13.332031 C 7.769531 13.332031 8.128906 13.140625 8.34375 12.820312 L 8.992188 11.847656 C 9.207031 11.527344 9.566406 11.332031 9.949219 11.332031 L 9.953125 11.332031 C 10.390625 11.332031 10.789062 11.578125 10.984375 11.96875 L 11.015625 12.03125 C 11.210938 12.421875 11.609375 12.667969 12.046875 12.667969 L 12.179688 12.667969 C 12.816406 12.667969 13.332031 12.152344 13.332031 11.511719 C 13.332031 11.007812 13.65625 10.558594 14.136719 10.398438 L 14.648438 10.226562 C 15.058594 10.09375 15.332031 9.710938 15.332031 9.28125 L 15.332031 9 C 15.332031 8.449219 14.886719 8 14.332031 8 C 13.78125 8 13.332031 7.550781 13.332031 7 L 13.332031 4.792969 "/>
<path style="fill:none;stroke-width:1;stroke-linecap:round;stroke-linejoin:round;stroke:rgb(0%,0%,0%);stroke-opacity:1;stroke-miterlimit:4;" d="M 19.332031 12 C 19.332031 16.050781 16.050781 19.332031 12 19.332031 C 7.949219 19.332031 4.667969 16.050781 4.667969 12 C 4.667969 7.949219 7.949219 4.667969 12 4.667969 C 16.050781 4.667969 19.332031 7.949219 19.332031 12 Z M 19.332031 12 "/>
</g>
</svg>
