<svg width="24" height="24" viewBox="0 0 24 24" fill="none" xmlns="http://www.w3.org/2000/svg">
<path d="M18.5266 15.3333H14.6666C13.9306 15.3333 13.3333 15.9307 13.3333 16.6667V19.2067" stroke="black" stroke-linecap="round" stroke-linejoin="round"/>
<path d="M4.79381 13.3333H7.38314C7.76847 13.3333 8.12847 13.1407 8.34247 12.8193L8.99114 11.8473C9.20514 11.526 9.56514 11.3333 9.95047 11.3333H9.95381C10.3911 11.3333 10.7905 11.58 10.9858 11.9707L11.0151 12.0293C11.2105 12.42 11.6098 12.6667 12.0465 12.6667H12.1805C12.8171 12.6667 13.3338 12.1507 13.3338 11.5133V11.5127C13.3338 11.0073 13.6565 10.5587 14.1358 10.3993L14.6498 10.228C15.0578 10.092 15.3338 9.70933 15.3338 9.27933V9C15.3338 8.448 14.8858 8 14.3338 8C13.7811 8 13.3338 7.552 13.3338 7V4.79333" stroke="black" stroke-linecap="round" stroke-linejoin="round"/>
<path fill-rule="evenodd" clip-rule="evenodd" d="M19.3335 12C19.3335 16.05 16.0502 19.3333 12.0002 19.3333C7.9502 19.3333 4.66687 16.05 4.66687 12C4.66687 7.95 7.9502 4.66667 12.0002 4.66667C16.0502 4.66667 19.3335 7.95 19.3335 12Z" stroke="black" stroke-linecap="round" stroke-linejoin="round"/>
</svg>
