<svg width="24" height="24" viewBox="0 0 24 24" fill="none" xmlns="http://www.w3.org/2000/svg">
<path d="M4.00031 1V8" stroke="black" stroke-width="2" stroke-linecap="round" stroke-linejoin="round"/>
<path d="M1.00031 1V9C1.00031 10.104 1.89631 11 3.00031 11H5.00031C6.10431 11 7.00031 10.104 7.00031 9V1" stroke="black" stroke-width="2" stroke-linecap="round" stroke-linejoin="round"/>
<path d="M4.00031 11V23" stroke="black" stroke-width="2" stroke-linecap="round" stroke-linejoin="round"/>
<path d="M20.0003 11V23" stroke="black" stroke-width="2" stroke-linecap="round" stroke-linejoin="round"/>
<path d="M14.0003 23V1C11.7913 1 10.0003 2.791 10.0003 5V15H14.0003" stroke="black" stroke-width="2" stroke-linecap="round" stroke-linejoin="round"/>
<path fill-rule="evenodd" clip-rule="evenodd" d="M23.0003 6C23.0003 8.762 21.6573 11 20.0003 11C18.3433 11 17.0003 8.762 17.0003 6C17.0003 3.238 18.3433 1 20.0003 1C21.6573 1 23.0003 3.238 23.0003 6Z" stroke="black" stroke-width="2" stroke-linecap="round" stroke-linejoin="round"/>
</svg>
