<?xml version="1.0" encoding="UTF-8"?>
<svg xmlns="http://www.w3.org/2000/svg" xmlns:xlink="http://www.w3.org/1999/xlink" width="24pt" height="24pt" viewBox="0 0 24 24" version="1.1">
<g id="surface316">
<path style="fill:none;stroke-width:1;stroke-linecap:round;stroke-linejoin:round;stroke:rgb(0%,0%,0%);stroke-opacity:1;stroke-miterlimit:4;" d="M 6.667969 4.667969 L 6.667969 9.332031 "/>
<path style="fill:none;stroke-width:1;stroke-linecap:round;stroke-linejoin:round;stroke:rgb(0%,0%,0%);stroke-opacity:1;stroke-miterlimit:4;" d="M 4.667969 4.667969 L 4.667969 10 C 4.667969 10.734375 5.265625 11.332031 6 11.332031 L 7.332031 11.332031 C 8.070312 11.332031 8.667969 10.734375 8.667969 10 L 8.667969 4.667969 "/>
<path style="fill:none;stroke-width:1;stroke-linecap:round;stroke-linejoin:round;stroke:rgb(0%,0%,0%);stroke-opacity:1;stroke-miterlimit:4;" d="M 6.667969 11.332031 L 6.667969 19.332031 "/>
<path style="fill:none;stroke-width:1;stroke-linecap:round;stroke-linejoin:round;stroke:rgb(0%,0%,0%);stroke-opacity:1;stroke-miterlimit:4;" d="M 17.332031 11.332031 L 17.332031 19.332031 "/>
<path style="fill:none;stroke-width:1;stroke-linecap:round;stroke-linejoin:round;stroke:rgb(0%,0%,0%);stroke-opacity:1;stroke-miterlimit:4;" d="M 13.332031 19.332031 L 13.332031 4.667969 C 11.859375 4.667969 10.667969 5.859375 10.667969 7.332031 L 10.667969 14 L 13.332031 14 "/>
<path style="fill:none;stroke-width:1;stroke-linecap:round;stroke-linejoin:round;stroke:rgb(0%,0%,0%);stroke-opacity:1;stroke-miterlimit:4;" d="M 19.332031 8 C 19.332031 9.839844 18.4375 11.332031 17.332031 11.332031 C 16.230469 11.332031 15.332031 9.839844 15.332031 8 C 15.332031 6.160156 16.230469 4.667969 17.332031 4.667969 C 18.4375 4.667969 19.332031 6.160156 19.332031 8 Z M 19.332031 8 "/>
</g>
</svg>
