<?xml version="1.0" encoding="UTF-8"?>
<svg xmlns="http://www.w3.org/2000/svg" xmlns:xlink="http://www.w3.org/1999/xlink" width="36pt" height="36pt" viewBox="0 0 36 36" version="1.1">
<g id="surface161">
<path style=" stroke:none;fill-rule:nonzero;fill:rgb(76.862746%,76.862746%,76.862746%);fill-opacity:1;" d="M 36 18 C 36 27.941406 27.941406 36 18 36 C 8.058594 36 0 27.941406 0 18 C 0 8.058594 8.058594 0 18 0 C 27.941406 0 36 8.058594 36 18 Z M 36 18 "/>
<path style="fill:none;stroke-width:2;stroke-linecap:round;stroke-linejoin:round;stroke:rgb(0%,0%,0%);stroke-opacity:1;stroke-miterlimit:4;" d="M 7.25 7 L 9.25 7 L 13.777344 19.671875 C 14.0625 20.46875 14.8125 21 15.660156 21 L 24.761719 21 C 25.644531 21 26.425781 20.421875 26.679688 19.574219 L 28.75 11 "/>
<path style="fill:none;stroke-width:2;stroke-linecap:round;stroke-linejoin:round;stroke:rgb(0%,0%,0%);stroke-opacity:1;stroke-miterlimit:4;" d="M 18.25 27 C 18.25 28.105469 17.355469 29 16.25 29 C 15.144531 29 14.25 28.105469 14.25 27 C 14.25 25.894531 15.144531 25 16.25 25 C 17.355469 25 18.25 25.894531 18.25 27 Z M 18.25 27 "/>
<path style="fill:none;stroke-width:2;stroke-linecap:round;stroke-linejoin:round;stroke:rgb(0%,0%,0%);stroke-opacity:1;stroke-miterlimit:4;" d="M 26.25 27 C 26.25 28.105469 25.355469 29 24.25 29 C 23.144531 29 22.25 28.105469 22.25 27 C 22.25 25.894531 23.144531 25 24.25 25 C 25.355469 25 26.25 25.894531 26.25 27 Z M 26.25 27 "/>
</g>
</svg>
