<svg width="36" height="36" viewBox="0 0 36 36" fill="none" xmlns="http://www.w3.org/2000/svg">
<circle cx="18" cy="18" r="18" fill="#C4C4C4"/>
<path d="M7.25031 7H9.25031L13.7763 19.673C14.0613 20.469 14.8143 21 15.6593 21H24.7623C25.6463 21 26.4243 20.421 26.6783 19.574L28.7503 11" stroke="black" stroke-width="2" stroke-linecap="round" stroke-linejoin="round"/>
<path fill-rule="evenodd" clip-rule="evenodd" d="M18.2503 27C18.2503 28.104 17.3543 29 16.2503 29C15.1463 29 14.2503 28.104 14.2503 27C14.2503 25.896 15.1463 25 16.2503 25C17.3543 25 18.2503 25.896 18.2503 27Z" stroke="black" stroke-width="2" stroke-linecap="round" stroke-linejoin="round"/>
<path fill-rule="evenodd" clip-rule="evenodd" d="M26.2503 27C26.2503 28.104 25.3543 29 24.2503 29C23.1463 29 22.2503 28.104 22.2503 27C22.2503 25.896 23.1463 25 24.2503 25C25.3543 25 26.2503 25.896 26.2503 27Z" stroke="black" stroke-width="2" stroke-linecap="round" stroke-linejoin="round"/>
</svg>
